<?xml version="1.0" encoding="utf-8"?>
<!-- Generator: Adobe Illustrator 24.3.0, SVG Export Plug-In . SVG Version: 6.00 Build 0)  -->
<svg version="1.1" id="Layer_1" xmlns="http://www.w3.org/2000/svg" xmlns:xlink="http://www.w3.org/1999/xlink" x="0px" y="0px"
	 viewBox="0 0 250 250" style="enable-background:new 0 0 250 250;" xml:space="preserve">
<g>
	<path d="M112.58,418.39c8.28,0,16.57,0,24.85,0c1.75,0.32,3.49,0.66,5.24,0.94c45.96,7.23,83.28,43.47,91.7,89.19
		c1.05,5.72,1.54,11.54,2.3,17.39c4.95,0.82,8.89,3.45,9.49,8.59c0.65,5.51,0.63,11.21-0.02,16.72c-0.62,5.18-4.68,7.68-9.77,8.59
		c0,0.97,0,1.85,0,2.74c-0.03,16,0.05,31.99-0.16,47.99c-0.06,4.26-0.56,8.63-1.64,12.75c-6.88,26.36-29.53,44.01-56.67,44.11
		c-35.16,0.12-70.32,0.04-105.48,0.02c-8.3,0-16.39-1.39-23.87-4.99c-22.8-10.97-34.5-29.23-34.86-54.54
		c-0.21-15.1-0.04-30.21-0.04-45.31c0-0.89,0-1.77,0-2.71c-0.74-0.2-1.35-0.37-1.97-0.54c-4.85-1.3-8.08-5.19-8.22-10.23
		c-0.12-4.22-0.13-8.45,0.01-12.67c0.16-4.98,3.51-8.96,8.3-10.2c0.6-0.16,1.21-0.27,1.68-0.38c0.61-5.27,0.98-10.38,1.81-15.41
		c7.25-43.82,41.6-80.06,84.93-89.67C104.29,419.85,108.44,419.17,112.58,418.39z M214.58,525.96c-1.44-7.37-2.29-14.41-4.22-21.13
		c-5.79-20.13-17.5-36.22-34.56-48.35c-12.49-8.88-26.42-14.03-41.65-15.7c-2.92-0.32-4.31-1.79-4.14-4.09
		c0.18-2.29,1.87-3.47,4.8-3.17c9.01,0.93,17.75,3.01,26.13,6.45c18.05,7.41,32.67,19.15,43.69,35.28
		c7.31,10.71,12.36,22.42,14.72,35.2c0.94,5.07,1.49,10.22,2.23,15.38c2.42,0,4.82,0,7.22,0c-0.06-29.2-16.21-67.78-54.23-87.8
		c-37.37-19.67-74.49-17.55-109.29,6.44c-28.13,19.4-42.18,47.23-44.39,81.35c2.91,0,5.31,0,7.84,0c0.25-2.96,0.36-5.8,0.75-8.6
		c2.28-16.64,8.2-31.82,18.32-45.28c15.09-20.08,35.08-32.4,59.65-37.34c3.01-0.61,6.1-0.89,9.17-1.09
		c1.85-0.12,3.06,1.03,3.34,2.88c0.29,1.91-0.44,3.36-2.35,3.99c-0.76,0.25-1.57,0.38-2.38,0.47c-13.34,1.56-25.79,5.77-37.1,13.03
		c-20.21,12.97-33.5,31.11-39.44,54.41c-1.45,5.67-1.98,11.57-2.99,17.69c1.55,0,2.43,0,3.31,0c25.02,0,50.03,0,75.05,0.01
		c1.05,0,2.13-0.04,3.16,0.14c1.73,0.31,2.68,1.46,2.8,3.2c0.12,1.73-0.62,3.07-2.3,3.58c-1.06,0.32-2.24,0.37-3.36,0.37
		c-16.65,0.02-33.3,0.02-49.95,0.02c-16.33,0-32.65-0.01-48.98,0.01c-3.51,0-4.67,1.19-4.69,4.67c-0.02,2.84,0,5.69,0,8.53
		c0,5.1,0.82,5.91,5.94,5.91c72.21,0,144.41,0,216.62,0c0.65,0,1.3,0.02,1.95-0.01c2.7-0.13,3.99-1.4,4.04-4.13
		c0.06-3.09,0.02-6.17,0.02-9.26c0-4.94-0.8-5.73-5.83-5.73c-32.49,0-64.98,0-97.47-0.01c-1.05,0-2.12-0.03-3.14-0.23
		c-1.95-0.38-2.93-1.68-2.83-3.66c0.11-1.97,1.23-3.12,3.21-3.34c0.88-0.1,1.78-0.08,2.68-0.08c24.93,0,49.87,0,74.8,0
		C211.67,525.96,212.63,525.96,214.58,525.96z M228.74,589.75c-3.71,3.9-7.25,7.69-10.86,11.41c-2,2.06-4.13,2.27-5.95,0.38
		c-7.16-7.43-14.25-14.91-21.3-22.44c-1.66-1.78-1.51-3.49,0.26-5.42c2.75-2.99,5.58-5.9,8.37-8.85c1.48-1.56,2.94-3.13,4.6-4.88
		c-3.88-0.63-6.93-0.45-9.32,2.85c-1.79,2.48-4.16,4.55-6.31,6.76c-2.5,2.57-4.27,2.54-6.8-0.07c-2.2-2.27-4.67-4.37-6.48-6.93
		c-2.38-3.34-5.44-3.07-9.06-2.68c0.7,0.79,1.2,1.39,1.74,1.96c3.63,3.83,7.29,7.63,10.91,11.48c2.21,2.35,2.25,4.05,0.08,6.35
		c-6.75,7.14-13.51,14.27-20.31,21.36c-2.31,2.41-4.3,2.39-6.65-0.07c-6.73-7.04-13.44-14.11-20.13-21.2
		c-2.23-2.36-2.2-4.12,0.08-6.54c3.67-3.91,7.38-7.78,11.06-11.67c0.46-0.49,0.86-1.04,1.32-1.6c-3.89-0.88-6.92-0.19-9.32,3.09
		c-1.76,2.4-4.05,4.43-6.15,6.57c-2.4,2.46-4.23,2.46-6.65-0.02c-2.32-2.38-4.85-4.63-6.81-7.29c-2.39-3.23-5.39-2.71-8.92-2.42
		c4.45,4.69,8.65,9.07,12.8,13.51c2.04,2.18,2.15,3.96,0.24,5.99c-6.89,7.35-13.82,14.65-20.79,21.92c-1.92,2-4.07,2.03-5.96,0.07
		c-7.03-7.32-14.02-14.68-20.97-22.08c-1.85-1.97-1.74-3.67,0.23-5.78c3.66-3.92,7.37-7.78,11.05-11.68
		c0.53-0.56,1.01-1.17,1.65-1.92c-3.74-0.56-6.81-0.47-9.19,2.87c-1.78,2.49-4.16,4.55-6.31,6.76c-2.51,2.58-4.25,2.56-6.8-0.06
		c-2.15-2.21-4.57-4.25-6.31-6.75c-2.39-3.42-5.51-3.28-9.22-2.85c0.68,0.77,1.17,1.38,1.71,1.94c3.69,3.89,7.41,7.75,11.07,11.66
		c2.02,2.16,2.08,3.88,0.1,5.98c-6.84,7.27-13.72,14.52-20.63,21.73c-2.1,2.19-4.15,2.16-6.3-0.04c-3.06-3.14-6.06-6.34-9.06-9.53
		c-0.68-0.73-1.28-1.54-2.13-2.56c-1,4.49-0.34,7.73,2.92,10.35c2.01,1.61,3.66,3.69,5.39,5.62c1.85,2.05,1.86,3.77,0.03,5.81
		c-1.62,1.82-3.33,3.55-5.02,5.31c-3.15,3.29-3.15,3.29-1.08,7.98c2.85-3,5.61-5.92,8.4-8.83c2.87-2.99,4.6-2.98,7.49,0.06
		c6.44,6.76,12.87,13.53,19.3,20.31c2.83,2.98,2.81,4.42-0.03,7.42c-3.45,3.63-6.9,7.27-10.36,10.93c4.01,2.66,4,2.65,7.02-0.54
		c2.18-2.3,4.35-4.6,6.55-6.88c2.76-2.86,4.42-2.89,7.14-0.06c3.54,3.69,7.29,7.22,10.5,11.18c2.48,3.06,5.34,2.41,8.73,2.21
		c-5.53-5.83-10.78-11.36-16.03-16.9c-2.79-2.95-2.82-4.35-0.09-7.23c6.53-6.9,13.08-13.79,19.63-20.66
		c2.63-2.76,4.49-2.75,7.16,0.05c6.5,6.82,12.99,13.65,19.47,20.49c2.82,2.98,2.81,4.4-0.07,7.44c-4.8,5.07-9.63,10.12-14.43,15.19
		c-0.46,0.48-0.85,1.03-1.21,1.46c4.18,1.3,7.05-0.19,9.62-3.36c2.86-3.52,6.19-6.66,9.34-9.93c2.62-2.72,4.38-2.71,6.98,0
		c3.37,3.51,7.02,6.83,9.98,10.66c2.54,3.28,5.52,3.27,9.22,2.79c-0.69-0.78-1.19-1.38-1.73-1.95c-4.87-5.12-9.76-10.22-14.61-15.36
		c-2.18-2.31-2.23-4.14-0.12-6.37c6.74-7.15,13.51-14.27,20.31-21.36c2.32-2.42,4.29-2.39,6.64,0.06
		c6.74,7.04,13.45,14.11,20.14,21.19c2.27,2.4,2.26,4.09-0.04,6.53c-4.79,5.08-9.62,10.12-14.43,15.19
		c-0.58,0.62-1.12,1.28-1.79,2.06c3.77,0.61,6.72,0.31,9.23-2.87c2.85-3.62,6.3-6.77,9.49-10.12c3.17-3.32,4.62-3.32,7.82,0.01
		c2.96,3.09,5.9,6.19,8.86,9.29c1.55-0.77,2.88-1.43,4.4-2.19c-3.65-3.85-7.06-7.43-10.46-11.03c-2.79-2.96-2.81-4.29-0.03-7.23
		c6.36-6.72,12.75-13.42,19.12-20.14c3.22-3.39,4.81-3.4,8.01-0.05c2.61,2.74,5.22,5.48,7.9,8.29c1.74-3.28,1.81-5.94-1.26-8.22
		c-1.41-1.05-2.5-2.54-3.72-3.84c-2.98-3.17-2.99-4.5-0.07-7.61c1.28-1.36,2.44-2.88,3.89-4.02
		C228.79,597.5,229.86,594.17,228.74,589.75z M111.86,576.54c-5.19-5.46-10.23-10.73-15.23-16.04c-0.96-1.02-1.68-0.95-2.61,0.04
		c-4.99,5.32-10.02,10.6-15.14,16c5.51,5.8,10.95,11.52,16.48,17.35C100.92,588.05,106.28,582.41,111.86,576.54z M78.88,639.34
		c5.56,5.85,10.96,11.54,16.48,17.35c5.54-5.83,10.95-11.52,16.49-17.35c-5.55-5.84-10.99-11.56-16.5-17.35
		C89.78,627.86,84.42,633.51,78.88,639.34z M171.52,639.35c-5.5-5.79-10.93-11.51-16.48-17.36c-5.59,5.88-10.98,11.57-16.49,17.36
		c5.58,5.85,11.01,11.56,16.51,17.33C160.67,650.76,166.03,645.12,171.52,639.35z M171.51,576.54
		c-5.11-5.38-10.15-10.65-15.13-15.98c-1.25-1.34-1.99-0.72-2.94,0.29c-4.11,4.37-8.26,8.7-12.39,13.05
		c-0.81,0.85-1.61,1.72-2.49,2.66c5.6,5.89,11,11.56,16.49,17.33C160.63,588.01,166.03,582.31,171.51,576.54z M52.18,576.54
		c-5.18-5.46-10.16-10.67-15.09-15.94c-1.03-1.1-1.76-1.07-2.78,0.02c-4.15,4.44-8.52,8.7-12.44,13.33
		c-0.88,1.04-1.02,3.99-0.2,4.95c4.42,5.15,9.25,9.96,14.05,14.99C41.26,588.05,46.66,582.36,52.18,576.54z M214.69,593.89
		c4.68-4.91,9.22-9.64,13.71-14.42c1.12-1.19,0.96-4.84-0.19-6.07c-4-4.25-8.06-8.43-12.03-12.71c-1.1-1.18-1.87-1.18-2.95,0.01
		c-2.68,2.93-5.45,5.77-8.18,8.65c-2.26,2.38-4.51,4.76-6.82,7.19C203.78,582.4,209.13,588.04,214.69,593.89z M26.38,631.78
		c3.79,7.43,8.84,13.49,15.55,18.36c3.46-3.64,6.8-7.16,10.26-10.79c-5.49-5.79-10.93-11.51-16.47-17.35
		C32.53,625.32,29.52,628.48,26.38,631.78z M223.77,631.53c-3.05-3.19-6.04-6.33-9.1-9.53c-5.61,5.91-11.01,11.6-16.46,17.35
		c3.47,3.66,6.76,7.12,10.12,10.65C214.96,645.07,219.98,639.03,223.77,631.53z M118.93,659.97c4.34,0,8.16,0,12.5,0
		c-2.26-2.38-4.2-4.43-6.22-6.57C123.06,655.65,121.17,657.63,118.93,659.97z M65.53,653.36c-1.72,1.84-3.22,3.44-5.21,5.57
		c4.11,0.46,7.52,0.85,10.92,1.23c0.04-0.2,0.09-0.39,0.13-0.59C69.5,657.58,67.62,655.59,65.53,653.36z M179.03,659.56
		c0.07,0.22,0.13,0.43,0.2,0.65c3.41-0.44,6.82-0.89,10.76-1.4c-1.99-2.1-3.5-3.7-5.13-5.42
		C182.77,655.6,180.9,657.58,179.03,659.56z M21.17,559.81c0,1.39,0,2.53,0,4.04c1.37-1.46,2.45-2.6,3.81-4.04
		C23.39,559.81,22.31,559.81,21.17,559.81z M67.99,559.84c-1.84,0-3.16,0-4.91,0c0.95,1.02,1.63,1.74,2.44,2.61
		C66.33,561.6,67.01,560.88,67.99,559.84z M123.2,559.78c0.74,0.91,1.38,1.69,2.11,2.58c0.79-0.85,1.46-1.58,2.39-2.58
		C125.87,559.78,124.53,559.78,123.2,559.78z M187.3,559.89c-1.81,0-3.18,0-4.49,0c0.65,0.93,1.25,1.78,1.91,2.72
		C185.71,561.58,186.37,560.88,187.3,559.89z M228.88,563.5c0-1.57,0-2.65,0-3.56c-1.14,0-2.1,0-3.33,0
		C226.73,561.19,227.65,562.18,228.88,563.5z"/>
	<path d="M65.53,634.61c-1.14-0.73-2.31-1.19-3.1-2.02c-6.92-7.19-13.79-14.42-20.63-21.68c-2.01-2.13-1.98-3.82,0.05-5.98
		c6.84-7.26,13.71-14.5,20.62-21.69c2.09-2.18,4.03-2.19,6.1-0.04c6.97,7.25,13.9,14.54,20.79,21.87c1.88,2,1.86,3.77-0.05,5.81
		c-6.89,7.33-13.83,14.61-20.8,21.86C67.76,633.5,66.65,633.91,65.53,634.61z M49.04,607.95c5.61,5.9,11,11.57,16.49,17.35
		c5.6-5.89,10.99-11.57,16.48-17.35c-5.55-5.84-10.95-11.52-16.48-17.35C60,596.41,54.61,602.09,49.04,607.95z"/>
	<path d="M210.38,607.88c-0.64,1.11-1.03,2.21-1.77,2.99c-6.83,7.27-13.69,14.51-20.6,21.72c-2.17,2.26-4.1,2.26-6.28-0.01
		c-6.91-7.2-13.78-14.43-20.62-21.69c-1.94-2.06-1.9-3.87,0.09-5.98c6.79-7.2,13.6-14.38,20.45-21.52c2.27-2.37,4.18-2.38,6.45,0
		c6.84,7.15,13.65,14.33,20.43,21.54C209.27,605.71,209.7,606.78,210.38,607.88z M184.86,590.59c-5.59,5.9-10.99,11.58-16.47,17.36
		c5.58,5.87,10.98,11.56,16.48,17.34c5.6-5.9,11.01-11.59,16.48-17.36C195.82,602.12,190.46,596.48,184.86,590.59z"/>
	<path d="M125.23,581.24c1.21,0.8,2.36,1.3,3.15,2.13c6.86,7.13,13.66,14.31,20.45,21.51c2.03,2.16,2.01,3.99-0.04,6.16
		c-6.73,7.14-13.49,14.26-20.27,21.35c-2.38,2.49-4.27,2.51-6.62,0.04c-6.78-7.09-13.53-14.21-20.26-21.36
		c-2.2-2.33-2.19-3.97,0.04-6.33c6.73-7.14,13.48-14.27,20.28-21.34C122.8,582.54,124.03,582.03,125.23,581.24z M108.71,607.95
		c5.65,5.93,11.04,11.59,16.52,17.34c5.63-5.95,11.01-11.63,16.46-17.37c-5.63-5.91-11.02-11.57-16.49-17.32
		C119.59,596.49,114.24,602.13,108.71,607.95z"/>
</g>
<g>
	<path d="M0.25,44.06c0.24-0.58,0.51-1.15,0.71-1.74c2.19-6.59,7.91-10.84,14.85-10.92c4.95-0.06,9.91-0.01,14.86-0.01
		c67.47,0,134.95,0,202.42,0c8.47,0,14.66,4.74,16.31,12.45c1.98,9.25-4.9,18.21-14.36,18.7c-1.05,0.06-2.11,0.03-3.17,0.03
		c-70.64,0-141.28-0.09-211.92,0.11C10.16,62.71,3.3,59.6,0.25,49.91C0.25,47.96,0.25,46.01,0.25,44.06z"/>
	<path d="M0.25,122.03c0.3-0.73,0.63-1.45,0.89-2.19c2.2-6.22,7.82-10.36,14.43-10.45c5.36-0.08,10.72-0.02,16.08-0.02
		c67.15,0,134.3,0,201.45,0c8.47,0,14.66,4.74,16.31,12.45c1.98,9.25-4.9,18.21-14.36,18.7c-1.05,0.06-2.11,0.03-3.17,0.03
		c-70.64,0-141.28-0.09-211.92,0.11c-9.8,0.03-16.66-3.08-19.7-12.78C0.25,125.93,0.25,123.98,0.25,122.03z"/>
	<path d="M0.25,200c0.3-0.73,0.63-1.45,0.89-2.19c2.2-6.22,7.82-10.36,14.43-10.45c5.36-0.08,10.72-0.02,16.08-0.02
		c67.15,0,134.3,0,201.45,0c8.47,0,14.66,4.74,16.31,12.45c1.98,9.25-4.9,18.21-14.36,18.7c-1.05,0.06-2.11,0.03-3.17,0.03
		c-70.64,0-141.28-0.09-211.92,0.11c-9.8,0.03-16.66-3.08-19.71-12.78C0.25,203.9,0.25,201.95,0.25,200z"/>
</g>
<g>
	<path d="M-651.98,105.47c0-4.39,0-8.79,0-13.18c0.4-2.89,0.72-5.79,1.2-8.66c4-23.65,14.94-43.47,32.99-59.27
		c13.18-11.54,28.44-19,45.62-22.42c4.12-0.82,8.31-1.3,12.47-1.93c4.39,0,8.79,0,13.18,0c2.81,0.37,5.63,0.65,8.42,1.12
		c23.09,3.88,42.8,14.15,58.38,31.7c21.05,23.7,29.09,51.4,24.16,82.7c-2.44,15.51-8.64,29.56-18.02,42.18
		c-0.81,1.09-1.62,2.19-2.9,3.93c0.9,0.59,1.83,1.02,2.51,1.69c22,21.95,44,43.9,65.9,65.95c2.34,2.36,4.07,5.34,6.08,8.03
		c0,1.46,0,2.93,0,4.39c-1.38,4.15-4.14,6.92-8.3,8.3c-1.46,0-2.93,0-4.39,0c-2.63-1.95-5.55-3.62-7.86-5.91
		c-22.11-21.96-44.12-44.02-66.16-66.05c-0.72-0.72-1.47-1.41-2.22-2.13c-1.23,0.91-2.19,1.65-3.19,2.35
		c-28.69,20.39-59.89,25.56-92.94,13.34c-33.27-12.31-53.89-36.64-62.46-71.04C-650.73,115.63-651.17,110.5-651.98,105.47z
		 M-474.88,99.05c-0.25-43.35-34.96-78-78.04-78.17c-42.9-0.17-78.03,34.87-78.17,77.98c-0.14,42.89,34.81,78.17,77.99,78.16
		C-510.16,177.03-475.35,142.8-474.88,99.05z"/>
</g>
<g>
	<path d="M707.23-427.39c-0.62,3.58-1.13,7.18-1.89,10.73c-2.76,12.82-9.07,23.71-18.28,32.94c-32.63,32.72-65.28,65.43-97.93,98.13
		c-4.43,4.44-8.89,4.43-13.33-0.02c-32.65-32.7-65.34-65.37-97.92-98.14c-21.49-21.61-26.51-53.67-12.11-80.61
		c10.55-19.74,27.29-31.89,49.55-35.04c27.49-3.88,49.63,5.97,66.32,28.11c0.19,0.26,0.42,0.49,0.78,0.91
		c0.49-0.58,0.96-1.08,1.38-1.63c13.78-18.34,32.21-27.95,55.07-28.32c32.62-0.53,61.29,23.28,67.15,55.27
		c0.45,2.47,0.81,4.95,1.21,7.43C707.23-434.21,707.23-430.8,707.23-427.39z M582.47-302.05c0.49-0.44,0.91-0.8,1.3-1.18
		c30.69-30.75,61.43-61.45,92.02-92.29c12.97-13.07,17.37-29.08,14.12-46.98c-3.66-20.17-19.78-36.59-39.81-40.36
		c-21.77-4.09-39.72,2.85-53.11,20.6c-2.74,3.63-4.54,8.01-6.54,12.16c-1.29,2.68-2.78,4.94-5.81,5.75
		c-4.57,1.23-8.16-0.93-10.31-6.19c-9.56-23.43-31.47-36.41-56.36-32.84c-17.42,2.5-30.39,11.96-38.3,27.61
		c-10.48,20.71-6.45,44.31,9.93,60.78c30.36,30.5,60.79,60.94,91.19,91.4C581.31-303.1,581.85-302.63,582.47-302.05z"/>
</g>
<g>
	<path d="M-399.39,475.52c-10.39-4.57-18.62-10.88-24.58-19.76c-2.72-4.06-4.76-8.59-6.92-13.01c-1.65-3.38-1.39-6.7,1.1-9.52
		c-3.01-3.55-6.21-6.86-8.88-10.55c-6.23-8.59-9.43-18.31-10.16-28.9c-0.36-5.31,0.97-9.45,5.9-10.94
		c-1.75-6.39-4.05-12.52-5.04-18.85c-2-12.7,0.76-24.69,7.31-35.73c2.87-4.84,9.17-5.16,12.96-0.71
		c6.25,7.36,13.11,14.08,20.79,19.94c18.28,13.94,38.83,22.52,61.56,25.87c0.64,0.09,1.3,0.08,2.06,0.13
		c0.28-3.49,0.36-6.93,0.85-10.31c3.71-25.63,24.4-42.47,46-46.4c18.32-3.34,34.52,1.45,48.41,13.85c2.39,2.13,5.31,2.08,8.1,2.27
		c6.78,0.44,12.9-1.83,18.82-4.93c1.68-0.88,3.71-1.63,5.55-1.57c4.32,0.13,7.27,3.64,7.22,8.09c-0.1,9.47-3.59,17.86-8.86,25.45
		c-3.26,4.7-7.35,8.81-10.96,13.28c-0.79,0.98-1.54,2.34-1.57,3.54c-1.4,52.39-23.63,93.37-67.53,122.13
		c-18.79,12.32-39.8,18.92-62.14,21.23c-31.95,3.31-61.97-2.74-89.96-18.59c-1.71-0.97-3.41-1.99-5.06-3.06
		c-3.39-2.2-4.65-5.54-3.5-9.14c1.18-3.72,4.21-5.84,8.34-5.4c15.16,1.6,29.84-0.29,44.05-5.8
		C-403.66,477.4-401.81,476.55-399.39,475.52z M-431.4,346.93c-1.51,5.36-1.66,10.44-0.87,15.5c1.78,11.41,7.65,20.27,17.07,26.88
		c3.64,2.55,4.82,5.74,3.65,9.34c-1.19,3.67-4.14,5.65-8.65,5.4c-3.57-0.2-7.13-0.75-11.33-1.21c1.86,3.55,3.3,6.95,5.31,9.98
		c5.87,8.88,14.11,14.54,24.49,16.99c3.01,0.71,5.62,1.84,6.89,4.94c1.89,4.64-0.45,9.48-5.46,10.77
		c-3.27,0.84-6.65,1.29-10.29,1.98c1.14,1.34,2.03,2.52,3.04,3.57c7.88,8.23,17.56,12.43,28.92,13.02c4.17,0.22,6.7,2.36,7.64,5.83
		c0.9,3.35-0.28,6.35-3.49,8.78c-8.57,6.51-17.93,11.61-28.09,15.14c-4.84,1.68-9.8,2.98-14.71,4.46c0.01,0.08,0.01,0.2,0.05,0.22
		c0.68,0.27,1.35,0.57,2.05,0.78c17.93,5.5,36.2,7.16,54.84,5.04c26.9-3.06,50.94-12.93,71.1-31.07
		c29.96-26.96,44.46-60.81,43.46-101.18c-0.08-3.4,1.08-6,3.85-8.04c5.78-4.26,10.1-9.77,13.71-16.17c-0.82,0-1.36-0.01-1.91,0
		c-4.84,0.15-9.69,0.59-14.51,0.36c-4.69-0.22-9.25-1.19-12.85-4.79c-9.4-9.39-20.72-13.24-33.93-11.47
		c-20.78,2.78-40.36,21.74-35,47.41c1.51,7.23-2.11,11.27-9.49,10.79c-24.04-1.56-46.43-8.49-67.09-20.92
		C-413.28,363.09-422.62,355.74-431.4,346.93z"/>
</g>
<g>
	<path d="M-96.63,57.6c0,44.92,0,89.84,0,134.76c-0.99,4.67-1.56,9.48-3.03,14c-8.52,26.27-32.14,43.51-59.86,43.59
		c-41.41,0.12-82.83,0.06-124.24,0.01c-13.3-0.01-25.56-3.69-36.33-11.57c-17.8-13.01-26.52-30.71-26.53-52.72
		c-0.01-40.27-0.03-80.55,0.04-120.82c0.01-4.13,0.2-8.33,0.94-12.38c4.2-23.1,17.32-39.22,39-48.03c5.56-2.26,11.74-3,17.64-4.44
		c44.92,0,89.84,0,134.76,0c1.75,0.31,3.51,0.6,5.25,0.93c22.95,4.33,39.01,17.33,47.85,38.85C-98.83,45.38-98.09,51.64-96.63,57.6z
		 M-117.61,124.99c0.03,0,0.06,0,0.09,0c0-20.34-0.03-40.68,0.02-61.02c0.02-6.52-0.86-12.85-3.77-18.71
		c-7.89-15.89-20.76-24.29-38.54-24.35c-41.25-0.14-82.51-0.06-123.76-0.02c-2.43,0-4.87,0.23-7.28,0.57
		c-18.93,2.67-34.61,19.79-34.73,38.96c-0.28,42.55-0.12,85.11-0.13,127.66c0,5.78,1.13,11.36,3.68,16.52
		c7.99,16.2,21.11,24.47,39.19,24.49c40.76,0.06,81.53,0.03,122.29-0.01c2.75,0,5.53-0.21,8.26-0.59
		c18.57-2.55,34.36-19.86,34.61-38.58C-117.38,168.28-117.61,146.63-117.61,124.99z"/>
	<path d="M-159.14,125.29c-0.33,34.61-28.68,62.62-62.92,62.18c-34.58-0.45-62.38-28.59-62.05-62.8
		c0.33-34.62,28.65-62.61,62.92-62.17C-186.62,62.94-158.81,91.07-159.14,125.29z M-221.59,83.37
		c-22.99-0.04-41.55,18.46-41.65,41.51c-0.1,22.96,18.38,41.56,41.45,41.71c23.03,0.15,41.79-18.55,41.77-41.63
		C-180.04,101.94-198.57,83.41-221.59,83.37z"/>
	<path d="M-153.79,72.81c-8.7,0.06-15.67-6.86-15.67-15.55c0.01-8.55,6.85-15.47,15.43-15.61c8.48-0.13,15.75,7.08,15.74,15.62
		C-138.29,65.78-145.25,72.75-153.79,72.81z"/>
</g>
<g>
	<path d="M-19.66,1571.92c2.22-8.15,4.33-15.89,6.44-23.62c4.38-16.03,8.82-32.05,13.08-48.11c0.41-1.54,0.23-3.66-0.53-5.04
		c-39.13-71.26-11.7-160.91,60.61-197.83c79.92-40.81,177.07,0.23,203.4,85.92c23.24,75.64-19.5,156.65-95.22,179.86
		c-37.6,11.52-74.09,7.91-109.23-9.76c-1.35-0.68-3.31-0.87-4.78-0.49c-23.52,6.05-47,12.23-70.49,18.37
		C-17.32,1571.45-18.28,1571.62-19.66,1571.92z M14.87,1537.88c14.44-3.79,28.29-7.36,42.1-11.09c2.35-0.63,4.14-0.32,6.2,0.92
		c26.66,15.98,55.38,21.25,85.82,15.2c64.53-12.83,106.36-75.26,94.2-140.03c-12.08-64.35-75.2-107.33-139.66-95.09
		c-80.6,15.3-122.59,105.17-82.06,176.42c4.2,7.38,5.05,13.44,2.44,21.22C20.39,1515.87,17.93,1526.69,14.87,1537.88z"/>
	<path d="M78.89,1359.19c6.23-1.54,9.23,2.12,11.36,7.65c3.26,8.45,6.83,16.79,10.41,25.12c1.25,2.9,1.14,5.45-0.74,7.94
		c-2.85,3.79-5.57,7.67-8.59,11.32c-2.03,2.47-2.22,4.67-0.59,7.4c11.76,19.74,28.16,34.03,49.55,42.55
		c2.94,1.17,5.27,0.64,7.24-1.83c3.53-4.41,7.14-8.75,10.63-13.19c2.57-3.26,4.05-4.07,7.74-2.38c10.17,4.64,20.25,9.48,30.23,14.51
		c1.23,0.62,2.34,2.9,2.32,4.39c-0.23,15.35-4.75,22.7-21.09,29.58c-9.28,3.9-18.91,2.98-28.47,0.32
		c-34.71-9.67-60.29-31.49-80.75-60.25c-6.35-8.93-12.09-18.15-14.52-28.98c-3.5-15.59,0.32-29.12,11.79-40.39
		C69.13,1359.29,73.63,1358.47,78.89,1359.19z"/>
</g>
<g>
	<path d="M548.05,0c5.21,0,10.42,0,15.63,0c0.63,0.14,1.25,0.35,1.88,0.4c19.38,1.46,37.51,7.01,54.08,17.15
		c32.44,19.84,52.3,48.49,59.32,85.92c0.85,4.54,1.29,9.15,1.92,13.73c0,5.05,0,10.09,0,15.14c-0.53,4.26-0.84,8.56-1.63,12.77
		c-8.08,43.45-32.11,74.75-71.96,93.8c-5.3,2.54-10.97,4.32-16.71,6.54c0-31.21,0-61.85,0-92.76c8.97,0,17.8,0,26.76,0
		c1.36-10.52,2.68-20.78,4.04-31.3c-5.42,0-10.45,0-15.48,0c-5.09,0-10.19,0-15.39,0c0-7.76-0.15-15.16,0.04-22.55
		c0.2-7.79,4.35-12.01,12.18-12.37c5.6-0.26,11.23-0.14,16.84-0.18c0.86-0.01,1.72,0,2.56,0c0-9.53,0-18.69,0-28.04
		c-10.03-0.78-19.93-1.9-29.81-0.68c-4.84,0.6-9.82,1.9-14.19,4C565.1,67.8,559.4,79.17,558.4,92.99
		c-0.61,8.42-0.26,16.91-0.33,25.38c-0.01,0.94,0,1.89,0,3.11c-9.11,0-17.85,0-26.72,0c0,10.49,0,20.71,0,31.29
		c8.93,0,17.73,0,26.5,0c0,32.61,0,64.86,0,97.2c-9.53,0.23-18.74-0.67-27.82-2.65c-30.37-6.63-55.15-22.27-73.88-47.04
		c-19.7-26.04-27.8-55.6-24.62-88.05c2.6-26.52,12.91-49.91,30.61-69.85c19.41-21.86,43.55-35.46,72.42-40.49
		C539.03,1.11,543.55,0.62,548.05,0z"/>
</g>
</svg>
